HIERARCHY
ROOT Hips
{
	OFFSET -3.958830 18.904000 13.208200
	CHANNELS 6 Xposition Yposition Zposition Zrotation Yrotation Xrotation 
	JOINT LHipJoint
	{
		OFFSET 0.000000 0.000000 0.000000
		CHANNELS 3 Zrotation Yrotation Xrotation
		JOINT LeftUpLeg
		{
			OFFSET 1.800000 -1.400000 0.085000
			CHANNELS 3 Zrotation Yrotation Xrotation
			JOINT LeftLeg
			{
				OFFSET 2.215000 -6.000000 0.000000
				CHANNELS 3 Zrotation Yrotation Xrotation
				JOINT LeftFoot
				{
					OFFSET 2.500000 -6.900000 0.000000
					CHANNELS 3 Zrotation Yrotation Xrotation
					JOINT LeftToeBase
					{
						OFFSET 0.200000 -0.500000 1.950000
						CHANNELS 3 Zrotation Yrotation Xrotation
						End Site
						{
							OFFSET 0.000000 0.000000 0.000000
						}
					}
				}
			}
		}
	}
	JOINT RHipJoint
	{
		OFFSET 0.000000 0.000000 0.000000
		CHANNELS 3 Zrotation Yrotation Xrotation
		JOINT RightUpLeg
		{
			OFFSET -1.800000 -1.400000 0.085000
			CHANNELS 3 Zrotation Yrotation Xrotation
			JOINT RightLeg
			{
				OFFSET -2.215000 -6.000000 0.000000
				CHANNELS 3 Zrotation Yrotation Xrotation
				JOINT RightFoot
				{
					OFFSET -2.500000 -6.900000 0.000000
					CHANNELS 3 Zrotation Yrotation Xrotation
					JOINT RightToeBase
					{
						OFFSET -0.200000 -0.500000 1.950000
						CHANNELS 3 Zrotation Yrotation Xrotation
						End Site
						{
							OFFSET 0.000000 0.000000 0.000000
						}
					}
				}
			}
		}
	}
	JOINT LowerBack
	{
		OFFSET 0.000000 0.000000 0.000000
		CHANNELS 3 Zrotation Yrotation Xrotation
		JOINT Spine
		{
			OFFSET -0.087000 1.940000 -0.288900
			CHANNELS 3 Zrotation Yrotation Xrotation
			JOINT Spine1
			{
				OFFSET 0.000000 1.950000 0.060000
				CHANNELS 3 Zrotation Yrotation Xrotation
				JOINT Neck
				{
					OFFSET 0.000000 0.000000 0.000000
					CHANNELS 3 Zrotation Yrotation Xrotation
					JOINT Neck1
					{
						OFFSET 0.000000 1.600000 0.340000
						CHANNELS 3 Zrotation Yrotation Xrotation
						JOINT Head
						{
							OFFSET 0.000000 1.667000 -0.240000
							CHANNELS 3 Zrotation Yrotation Xrotation
							End Site
							{
								OFFSET 0.000000 0.000000 0.000000
							}
						}
					}
				}
				JOINT LeftShoulder
				{
					OFFSET 0.000000 0.000000 0.000000
					CHANNELS 3 Zrotation Yrotation Xrotation
					JOINT LeftArm
					{
						OFFSET 2.700000 1.550000 -0.730000
						CHANNELS 3 Zrotation Yrotation Xrotation
						JOINT LeftForeArm
						{
							OFFSET 5.450000 0.000000 0.000000
							CHANNELS 3 Zrotation Yrotation Xrotation
							JOINT LeftHand
							{
								OFFSET 3.450000 0.000000 0.000000
								CHANNELS 3 Zrotation Yrotation Xrotation
								JOINT LeftHandIndex1
								{
									OFFSET 0.750000 0.000000 0.000000
									CHANNELS 3 Zrotation Yrotation Xrotation
									End Site
									{
										OFFSET 0.000000 0.000000 0.000000
									}
								}
							}
						}
					}
				}
				JOINT RightShoulder
				{
					OFFSET 0.000000 0.000000 0.000000
					CHANNELS 3 Zrotation Yrotation Xrotation
					JOINT RightArm
					{
						OFFSET -2.700000 1.550000 -0.730000
						CHANNELS 3 Zrotation Yrotation Xrotation
						JOINT RightForeArm
						{
							OFFSET -5.450000 0.000000 0.000000
							CHANNELS 3 Zrotation Yrotation Xrotation
							JOINT RightHand
							{
								OFFSET -3.450000 0.000000 0.000000
								CHANNELS 3 Zrotation Yrotation Xrotation
								JOINT RightHandIndex1
								{
									OFFSET -0.750000 0.000000 0.000000
									CHANNELS 3 Zrotation Yrotation Xrotation
									End Site
									{
										OFFSET 0.000000 0.000000 0.000000
									}
								}
							}
						}
					}
				}
			}
		}
	}
}
MOTION
Frames: 7
Frame Time: 0.016667
-2.307080 16.631560 -1.527100 4.209152 53.966201 -1.607040 -15.447220 12.292370 4.455354 10.364308 -8.997296 -25.566468 -14.642889 16.599910 47.944486 0.884077 10.105306 0.885657 0.417170 0.334560 0.396330 18.017891 -10.992345 2.217140 -7.664761 2.706741 -25.584462 -9.981104 -5.987181 60.952508 -1.283156 -8.582340 1.283749 0.225260 -0.178080 0.008850 -4.552856 -1.027384 -8.608693 7.521927 -3.017039 30.729692 -8.131531 -0.658459 3.215205 -0.649672 -2.366766 -8.637356 -9.588714 0.847975 44.873799 0.866740 -0.437100 -12.435650 -26.891868 -18.478168 0.110080 -7.138812 -16.911405 -9.497669 52.501490 -36.358529 -17.075390 -3.542343 2.708160 0.375820 -0.172430 0.191650 0.035360 27.662339 18.442647 8.735343 43.893020 4.766176 -9.262788 39.810069 37.679589 7.810002 2.381569 -1.566941 -0.056470 0.145360 -0.127150 -0.165520 
-2.360110 16.583370 -1.484570 4.598924 54.002137 -1.958999 -15.462348 12.305171 4.505136 11.042704 -8.895823 -25.306086 -15.520766 17.273958 48.127016 0.950770 10.299885 0.812194 0.437060 0.364650 0.400700 17.996013 -10.976655 2.194335 -7.385873 2.812208 -24.803005 -10.146374 -5.822993 61.281890 -1.319503 -8.622180 1.276134 0.228740 -0.194620 0.017230 -4.457515 -1.076638 -8.631362 6.472304 -2.516626 31.360448 -7.436520 -0.299167 3.325777 -0.891860 -2.236133 -8.868417 -9.591242 1.117304 46.051816 1.647000 -0.360860 -12.710580 -26.359792 -18.776231 0.204541 -5.935710 -16.638538 -9.578747 50.627529 -35.919657 -16.130428 -3.525374 2.730585 0.382750 -0.187380 0.213550 0.038730 27.708355 18.879722 8.857059 43.352325 4.943134 -9.209759 40.182039 37.345563 7.814968 2.382782 -1.568715 -0.033600 0.135350 -0.135800 -0.158600 
-2.489750 16.530950 -1.454340 5.333806 54.719006 -1.402831 -15.511522 12.269288 4.604728 12.439940 -8.681391 -25.900952 -17.222544 18.032739 47.066028 0.985385 10.404557 0.773214 0.424230 0.358450 0.397310 17.958199 -10.804795 2.230001 -7.994123 3.113499 -24.821690 -7.962977 -7.194602 61.449713 -1.327262 -8.712946 1.249838 0.217590 -0.193270 0.021910 -4.194312 -1.314166 -8.692932 4.907425 -1.420595 31.609688 -5.717601 0.518229 3.545273 -1.050520 -1.439064 -9.051426 -7.993485 0.573567 45.813389 1.542290 -0.078920 -12.665540 -25.356728 -18.942908 0.301914 -4.549405 -16.278243 -9.332711 45.715836 -37.326715 -14.591662 -3.508349 2.729270 0.376140 -0.178970 0.217780 0.034930 27.172228 19.023411 9.021327 43.353244 4.781961 -9.612712 40.222138 39.205522 8.320877 2.370607 -1.577607 -0.028640 0.130650 -0.134740 -0.157070 
-2.629360 16.581210 -1.397740 5.242177 55.367126 -2.299721 -15.531409 12.448330 4.472137 12.903918 -8.004769 -25.329578 -15.872268 17.169568 46.225722 0.873493 10.045599 0.856735 0.438680 0.369540 0.404450 17.903816 -10.819204 2.294149 -7.593704 3.339097 -23.454364 -5.912409 -8.135712 60.379336 -1.318903 -8.599608 1.279202 0.221050 -0.213610 0.018570 -4.088983 -1.431705 -8.636936 4.018450 -0.566993 32.302102 -4.546788 1.280999 3.913634 -1.369825 -1.041431 -9.260597 -7.562480 0.473472 47.113906 3.025150 -0.435570 -13.023860 -24.754797 -19.186381 0.311194 -3.595036 -16.330885 -9.198001 41.855355 -37.697103 -13.214004 -3.466997 2.745238 0.402750 -0.205780 0.233930 0.031290 27.291764 19.275810 9.333965 43.330088 4.390014 -10.364158 41.567071 42.051756 9.464655 2.354930 -1.603160 -0.026020 0.124600 -0.137950 -0.162340 
-2.764100 16.710790 -1.331320 5.591222 55.610658 -2.092561 -15.532801 12.604957 4.337302 13.213009 -7.192818 -24.696129 -15.523798 16.000982 43.027460 0.709630 9.372981 1.054805 0.422870 0.347320 0.382490 17.859209 -10.876660 2.365396 -7.166823 3.470255 -22.322180 -3.783732 -8.678355 57.512940 -1.214196 -8.211703 1.399568 0.211010 -0.197050 0.015380 -4.043832 -1.479275 -8.576137 3.455799 0.244476 31.328832 -3.750848 2.030353 4.107822 -1.716262 -1.112415 -9.554022 -8.158987 1.201471 49.497177 3.896120 -0.463120 -11.018470 -24.444329 -19.153358 0.461187 -3.815591 -16.182818 -8.786687 35.826856 -37.710126 -11.040024 -3.458008 2.776962 0.396420 -0.199120 0.218550 0.032170 27.749018 19.591102 9.371595 44.283013 4.454740 -10.165201 37.217895 38.241291 7.028517 2.349588 -1.563680 -0.031240 0.117660 -0.126330 -0.157280 
-2.896740 16.926300 -1.277460 4.824525 55.433303 -2.603675 -15.508661 12.995754 3.942071 11.744133 -5.961479 -23.445970 -11.792616 12.967046 39.082674 0.385975 7.984433 1.505144 0.427620 0.360200 0.364510 17.810724 -11.097521 2.462856 -5.529662 3.379505 -20.880944 -3.145845 -7.786788 52.664473 -1.031314 -7.371998 1.675515 0.225100 -0.172040 0.011810 -4.155814 -1.524859 -8.327541 4.194413 0.439326 30.137948 -3.359783 2.326148 4.775401 -2.187170 -1.864220 -9.186946 -9.858451 2.576876 50.019227 4.982650 -0.256810 -10.616400 -23.957822 -17.684986 0.220092 -6.183528 -16.857851 -8.238588 32.107236 -37.890298 -9.992275 -3.449379 2.789745 0.387490 -0.191790 0.207590 0.044360 28.092453 18.613557 8.852026 45.651505 4.697209 -10.361040 33.437329 37.483234 5.799528 2.335192 -1.538955 -0.035500 0.131720 -0.122520 -0.144830 
-3.020130 17.192450 -1.245570 4.353865 55.971657 -2.325185 -15.477634 13.404582 3.501700 9.403310 -4.551575 -21.279798 -8.199879 9.566289 32.189528 0.028940 6.126609 2.169540 0.387800 0.314840 0.345330 17.738153 -11.428352 2.550444 -5.793680 2.794339 -19.378367 -0.509601 -7.847841 45.827849 -0.782353 -6.397369 2.002849 0.205300 -0.139740 0.012760 -4.324525 -1.437711 -8.048675 5.182927 0.461386 28.190387 -3.580862 2.351160 6.066693 -2.006462 -1.612879 -9.342581 -9.230730 2.717887 51.108887 3.994280 0.116380 -8.926450 -23.400173 -17.644539 0.723225 -8.104371 -16.458017 -7.783958 27.299428 -39.354347 -8.757717 -3.466748 2.794022 0.366040 -0.156510 0.181700 0.035450 27.146395 18.516563 8.650727 46.151567 6.046255 -9.864408 32.617088 38.222323 5.838980 2.339392 -1.522075 -0.050630 0.138170 -0.100440 -0.145120 
